<svg width="960" height="540" viewBox="0 0 960 540" fill="none" xmlns="http://www.w3.org/2000/svg" role="img" aria-labelledby="title desc">
  <title id="title">pi-spex-extension brand illustration</title>
  <desc id="desc">A bright, editorial-style SVG illustration showing a consultant mascot guiding a spec-driven workflow from idea to plan to implementation.</desc>
  <defs>
    <linearGradient id="bg" x1="88" y1="64" x2="844" y2="476" gradientUnits="userSpaceOnUse">
      <stop stop-color="#FFF6E8"/>
      <stop offset="1" stop-color="#F6FBFF"/>
    </linearGradient>
    <linearGradient id="card" x1="164" y1="128" x2="782" y2="422" gradientUnits="userSpaceOnUse">
      <stop stop-color="#FFFFFF"/>
      <stop offset="1" stop-color="#FFF9F0"/>
    </linearGradient>
    <linearGradient id="orb" x1="201" y1="167" x2="374" y2="340" gradientUnits="userSpaceOnUse">
      <stop stop-color="#FFB85C"/>
      <stop offset="1" stop-color="#F36F45"/>
    </linearGradient>
    <filter id="shadow" x="104" y="88" width="752" height="370" filterUnits="userSpaceOnUse" color-interpolation-filters="sRGB">
      <feDropShadow dx="0" dy="16" stdDeviation="20" flood-color="#D9A35C" flood-opacity="0.18"/>
    </filter>
  </defs>

  <rect width="960" height="540" rx="28" fill="url(#bg)"/>
  <rect x="42" y="42" width="876" height="456" rx="30" fill="#F8E9CF" fill-opacity="0.42"/>

  <g filter="url(#shadow)">
    <rect x="124" y="108" width="712" height="330" rx="28" fill="url(#card)"/>
  </g>

  <g>
    <circle cx="288" cy="254" r="96" fill="url(#orb)"/>
    <circle cx="288" cy="254" r="66" fill="#FFF8F1" fill-opacity="0.94"/>
    <path d="M257 226C270 214 283 210 297 210C319 210 338 221 350 239" stroke="#1D3D53" stroke-width="10" stroke-linecap="round"/>
    <circle cx="267" cy="252" r="8" fill="#1D3D53"/>
    <circle cx="312" cy="252" r="8" fill="#1D3D53"/>
    <path d="M270 286C281 296 296 299 313 292" stroke="#1D3D53" stroke-width="10" stroke-linecap="round"/>
    <path d="M220 330C244 314 270 306 299 306C325 306 349 313 372 328" stroke="#1D3D53" stroke-width="12" stroke-linecap="round"/>
  </g>

  <g>
    <rect x="424" y="142" width="124" height="86" rx="18" fill="#FFF3E0" stroke="#1D3D53" stroke-width="4"/>
    <path d="M447 166H524" stroke="#1D3D53" stroke-width="6" stroke-linecap="round"/>
    <path d="M447 187H507" stroke="#1D3D53" stroke-width="6" stroke-linecap="round"/>
    <path d="M447 208H486" stroke="#F36F45" stroke-width="6" stroke-linecap="round"/>
    <text x="438" y="131" fill="#1D3D53" font-family="ui-sans-serif, system-ui, sans-serif" font-size="18" font-weight="700">IDEA</text>
  </g>

  <g>
    <rect x="582" y="126" width="166" height="102" rx="18" fill="#EFF8FF" stroke="#1D3D53" stroke-width="4"/>
    <path d="M610 154H722" stroke="#1D3D53" stroke-width="6" stroke-linecap="round"/>
    <path d="M610 177H709" stroke="#1D3D53" stroke-width="6" stroke-linecap="round"/>
    <path d="M610 200H677" stroke="#58A55C" stroke-width="6" stroke-linecap="round"/>
    <text x="595" y="112" fill="#1D3D53" font-family="ui-sans-serif, system-ui, sans-serif" font-size="18" font-weight="700">SPEC</text>
  </g>

  <g>
    <rect x="424" y="274" width="156" height="104" rx="18" fill="#F5F7FF" stroke="#1D3D53" stroke-width="4"/>
    <path d="M451 302H554" stroke="#1D3D53" stroke-width="6" stroke-linecap="round"/>
    <path d="M451 325H533" stroke="#1D3D53" stroke-width="6" stroke-linecap="round"/>
    <path d="M451 348H512" stroke="#FFB85C" stroke-width="6" stroke-linecap="round"/>
    <text x="437" y="262" fill="#1D3D53" font-family="ui-sans-serif, system-ui, sans-serif" font-size="18" font-weight="700">PLAN</text>
  </g>

  <g>
    <rect x="620" y="270" width="150" height="116" rx="18" fill="#ECFFF2" stroke="#1D3D53" stroke-width="4"/>
    <rect x="645" y="301" width="20" height="20" rx="5" fill="#58A55C"/>
    <path d="M650 311L656 317L668 304" stroke="#FFF8F1" stroke-width="4" stroke-linecap="round" stroke-linejoin="round"/>
    <path d="M680 311H736" stroke="#1D3D53" stroke-width="6" stroke-linecap="round"/>
    <rect x="645" y="333" width="20" height="20" rx="5" fill="#F36F45"/>
    <path d="M680 343H723" stroke="#1D3D53" stroke-width="6" stroke-linecap="round"/>
    <text x="634" y="256" fill="#1D3D53" font-family="ui-sans-serif, system-ui, sans-serif" font-size="18" font-weight="700">BUILD</text>
  </g>

  <path d="M372 224C395 203 411 192 424 188" stroke="#1D3D53" stroke-width="6" stroke-linecap="round"/>
  <path d="M554 183C564 178 575 176 583 176" stroke="#1D3D53" stroke-width="6" stroke-linecap="round"/>
  <path d="M373 285C395 292 408 300 424 316" stroke="#1D3D53" stroke-width="6" stroke-linecap="round"/>
  <path d="M582 330C594 330 607 329 620 326" stroke="#1D3D53" stroke-width="6" stroke-linecap="round"/>

  <g>
    <path d="M202 146C225 120 263 106 302 106C334 106 361 114 380 132" stroke="#1D3D53" stroke-width="8" stroke-linecap="round"/>
    <path d="M174 386C199 402 235 412 281 412C333 412 370 398 394 372" stroke="#1D3D53" stroke-width="8" stroke-linecap="round"/>
  </g>

  <g>
    <text x="122" y="84" fill="#1D3D53" font-family="ui-sans-serif, system-ui, sans-serif" font-size="24" font-weight="700">pi-spex-extension</text>
    <text x="122" y="470" fill="#48606F" font-family="ui-sans-serif, system-ui, sans-serif" font-size="20">interactive spec-driven development consultant for Pi</text>
  </g>
</svg>
